<?xml version="1.0" encoding="utf-8"?>
<!-- Generator: Adobe Illustrator 25.4.1, SVG Export Plug-In . SVG Version: 6.00 Build 0)  -->
<svg version="1.0" id="Camada_1" xmlns="http://www.w3.org/2000/svg" xmlns:xlink="http://www.w3.org/1999/xlink" x="0px" y="0px"
	 viewBox="0 0 1080 1080" enable-background="new 0 0 1080 1080" xml:space="preserve">
<path fill="#FFFFFF" d="M937,389.52c-1.49,3.2-2.84,6.47-4.49,9.58c-6.78,12.79-17.24,20.4-31.8,21.59
	c-6.94,0.57-14,1.05-20.89,0.36c-7.78-0.77-10.47,2.46-12.47,9.59c-22.56,80.5-45.46,160.9-68.28,241.32
	c-6.25,22.03-19.47,32.17-42.33,32.18c-106.76,0.04-213.51,0.02-320.27,0.02c-3.06,0-6.12,0-10.1,0
	c2.98,11.76,5.74,22.68,8.64,34.16c16.02,0.98,31.97,1.96,47.92,2.94c69.64,4.28,139.3,8.2,208.9,13.04
	c27.53,1.92,55.08,4.91,82.34,9.24c25.62,4.07,44.95,30.35,42.82,55.05c-2.62,30.37-24.4,51.63-53.85,52.54
	c-26.63,0.82-50.64-19.58-54.59-46.41c-0.45-3.07-0.85-6.14-1.36-9.75c-87.67,0-175.41,0-262.16,0c-2.95,9.36-4.64,18.95-8.85,27.26
	c-10.73,21.21-32.54,31.4-57.1,28.08c-20.15-2.73-38.63-20.08-43.76-41.09c-5.35-21.9,3.21-45.1,22.28-57.66
	c5.5-3.62,5.95-6.66,4.33-12.47c-42.07-151.13-83.97-302.31-125.7-453.54c-1.45-5.26-3.94-7.54-9-8.82
	c-18.51-4.68-36.96-9.6-55.35-14.75c-16.23-4.54-26.54-15.21-28.57-32.01c-1.82-15.06,4.33-27.27,17.27-35.61
	c9.53-6.14,19.96-6.68,30.58-3.87c26.69,7.06,53.31,14.37,79.98,21.53c15.98,4.29,25.39,14.75,29.81,30.48
	c6.56,23.35,13.78,46.52,20.05,69.94c1.81,6.76,4.6,8.73,11.54,8.72c186.11-0.17,372.22-0.03,558.33-0.17
	c15.72-0.01,29.26,3.75,38.5,17.1c3.31,4.78,5.12,10.59,7.62,15.93C937,379.18,937,384.35,937,389.52z M510.31,426.81
	c0.21,3.26,0.14,5.33,0.5,7.33c10.75,59.43,21.59,118.84,32.23,178.28c0.94,5.28,3.49,6.65,8.42,6.55
	c12.4-0.25,24.81-0.32,37.21,0.02c5.74,0.16,8.01-1.66,9.06-7.56c10.44-58.69,21.24-117.33,31.89-175.98
	c1.57-8.65,1.04-9.22-7.89-9.23c-34.37-0.02-68.74-0.02-103.11,0.01C516.12,426.25,513.61,426.58,510.31,426.81z M702.89,618.89
	c9.3,0,18.6-0.17,27.9,0.07c4.6,0.12,6.87-1.37,8.18-6.04c16.83-59.82,33.82-119.6,50.95-179.33c1.67-5.83-0.14-7.43-5.66-7.41
	c-22.73,0.11-45.47,0.14-68.2-0.04c-4.75-0.04-6.77,1.63-7.8,6.32c-13.17,59.69-26.46,119.35-39.93,178.98
	c-1.29,5.72,0.31,7.6,5.89,7.5C683.77,618.76,693.33,618.89,702.89,618.89z M349.98,426.9c0.37,2.9,0.37,4.96,0.92,6.87
	c16.89,59.51,33.88,118.99,50.69,178.52c1.37,4.84,3.79,6.7,8.73,6.66c18.59-0.16,37.18-0.16,55.77,0c5.8,0.05,7.71-1.47,6.28-7.78
	c-13.42-59.34-26.6-118.74-39.68-178.16c-1.17-5.34-3.65-6.96-8.98-6.89c-22.2,0.27-44.41,0.1-66.62,0.14
	C355.09,426.25,353.08,426.61,349.98,426.9z"/>
</svg>
